<svg width="20" height="20" viewBox="0 0 20 20" fill="none" xmlns="http://www.w3.org/2000/svg">
<path fill-rule="evenodd" clip-rule="evenodd" d="M20 8.57142C20 3.83756 15.5228 0 10 0C4.47715 0 0 3.83756 0 8.57142C0 9.7433 0.274368 10.8602 0.771048 11.8776C2.83111 16.6988 10.0525 20 10.0525 20C10.0525 20 18.9233 15.9448 19.8061 10.2596C19.9333 9.71382 20 9.1493 20 8.57142Z" fill="white"/>
<path fill-rule="evenodd" clip-rule="evenodd" d="M18.4052 10.1163L18.3961 10.1557L18.39 10.1954C18.0203 12.6026 15.9251 14.808 13.6642 16.5011C12.5625 17.3261 11.4822 17.9843 10.6762 18.4363C10.442 18.5677 10.232 18.681 10.0526 18.7755C9.93331 18.7127 9.80054 18.6416 9.65614 18.5624C8.98168 18.1924 8.06127 17.6503 7.08189 16.9649C5.08593 15.5681 3.00853 13.6888 2.11249 11.5688L2.10138 11.5425L2.08891 11.5167C1.66402 10.6368 1.42859 9.66979 1.42859 8.65203C1.42859 4.54991 5.26615 1.22449 10 1.22449C14.7339 1.22449 18.5714 4.54991 18.5714 8.65203C18.5714 9.15438 18.5141 9.64389 18.4052 10.1163Z" fill="#039855"/>
<path d="M13.8095 8.57142C13.8095 6.76804 12.104 5.30611 10 5.30611C7.89607 5.30611 6.19049 6.76804 6.19049 8.57142C6.19049 10.3748 7.89607 11.8367 10 11.8367C12.104 11.8367 13.8095 10.3748 13.8095 8.57142Z" fill="white"/>
</svg>
