<?xml version="1.0" standalone="no"?>
<!DOCTYPE svg PUBLIC "-//W3C//DTD SVG 20010904//EN"
 "http://www.w3.org/TR/2001/REC-SVG-20010904/DTD/svg10.dtd">
<svg version="1.0" xmlns="http://www.w3.org/2000/svg"
 width="436.000000pt" height="371.000000pt" viewBox="0 0 436.000000 371.000000"
 preserveAspectRatio="xMidYMid meet">

<g transform="translate(0.000000,371.000000) scale(0.100000,-0.100000)"
fill="#000000" stroke="none">
<path d="M2250 3310 c0 -38 4 -50 15 -50 16 0 20 36 9 78 -11 39 -24 24 -24
-28z"/>
<path d="M2109 3346 c-2 -3 -3 -25 -1 -50 3 -33 8 -46 19 -46 10 0 13 6 9 16
-3 9 -6 31 -6 50 0 30 -8 42 -21 30z"/>
<path d="M2170 3346 c0 -2 11 -23 24 -46 14 -25 26 -36 28 -28 7 18 -23 78
-39 78 -7 0 -13 -2 -13 -4z"/>
<path d="M2320 3328 c0 -13 -3 -33 -6 -45 -5 -17 -2 -23 10 -23 12 0 16 10 16
45 0 25 -4 45 -10 45 -5 0 -10 -10 -10 -22z"/>
<path d="M2380 3344 c0 -3 15 -26 32 -52 24 -34 34 -42 36 -30 3 18 -44 88
-59 88 -5 0 -9 -3 -9 -6z"/>
<path d="M1994 3299 c3 -17 6 -40 6 -50 0 -11 7 -19 15 -19 11 0 14 7 10 25
-3 14 -7 36 -10 50 -3 14 -10 25 -16 25 -7 0 -9 -11 -5 -31z"/>
<path d="M2044 3321 c4 -7 2 -19 -5 -27 -9 -11 -8 -18 6 -34 10 -11 25 -20 33
-20 13 0 13 3 -2 18 -9 11 -15 29 -14 42 2 12 -3 25 -11 28 -9 3 -11 0 -7 -7z"/>
<path d="M2492 3318 c-31 -31 -4 -88 42 -88 40 0 61 65 30 91 -15 12 -16 11
-10 -7 9 -28 -9 -74 -29 -74 -22 0 -30 28 -18 61 12 30 5 37 -15 17z"/>
<path d="M2616 3298 c-3 -7 -9 -27 -14 -45 -9 -26 -8 -32 6 -35 12 -3 17 2 17
16 1 12 4 33 8 49 7 27 -9 41 -17 15z"/>
<path d="M1870 3294 c0 -3 5 -25 11 -49 7 -29 15 -42 24 -39 7 3 11 14 8 25
-4 15 -2 18 11 13 9 -3 16 -10 16 -15 0 -5 10 -9 23 -9 21 1 21 2 -8 25 -16
14 -35 23 -42 21 -6 -3 -13 4 -16 15 -5 17 -27 28 -27 13z"/>
<path d="M2706 3258 c-21 -30 -20 -41 6 -64 21 -19 21 -19 11 0 -12 22 -1 65
20 78 8 5 7 8 -5 8 -9 0 -24 -10 -32 -22z"/>
<path d="M1770 3267 c0 -2 7 -24 16 -50 11 -32 20 -44 29 -40 12 4 12 9 0 33
-8 16 -15 36 -15 45 0 8 -7 15 -15 15 -8 0 -15 -1 -15 -3z"/>
<path d="M2773 3263 c8 -14 -9 -64 -26 -75 -8 -5 -7 -8 4 -8 20 0 49 31 49 52
0 9 -8 22 -17 29 -9 8 -14 9 -10 2z"/>
<path d="M1693 3221 c2 -19 10 -27 35 -33 24 -7 32 -13 28 -24 -3 -9 -1 -12 4
-9 6 3 10 14 10 25 0 19 -19 30 -50 30 -10 0 -21 8 -24 18 -3 10 -4 7 -3 -7z"/>
<path d="M2826 3224 c-20 -20 -21 -58 -1 -74 13 -11 14 -10 9 4 -10 26 5 66
29 76 l22 9 -22 0 c-12 1 -29 -6 -37 -15z"/>
<path d="M2896 3217 c3 -10 9 -15 12 -12 3 3 0 11 -7 18 -10 9 -11 8 -5 -6z"/>
<path d="M1610 3193 c0 -15 63 -71 75 -66 9 3 0 16 -25 39 -37 34 -50 41 -50
27z"/>
<path d="M2932 3155 c-12 -24 -17 -47 -12 -50 13 -8 54 75 43 86 -5 5 -18 -10
-31 -36z"/>
<path d="M1535 3160 c-3 -5 -1 -10 4 -10 6 0 11 5 11 10 0 6 -2 10 -4 10 -3 0
-8 -4 -11 -10z"/>
<path d="M2862 3150 c-11 -17 -10 -20 7 -20 19 0 35 23 24 34 -10 10 -18 7
-31 -14z"/>
<path d="M3000 3130 c0 -21 -5 -42 -10 -45 -11 -7 -4 -25 8 -25 4 0 16 12 26
27 11 14 14 23 6 18 -10 -6 -12 -1 -8 23 3 20 0 33 -9 36 -9 4 -13 -5 -13 -34z"/>
<path d="M1483 3133 c-7 -3 -2 -19 14 -49 18 -31 29 -42 36 -35 7 7 6 15 -3
26 -15 18 0 21 29 6 9 -5 23 -6 30 -2 15 10 -41 36 -61 28 -7 -2 -17 4 -23 13
-5 9 -15 15 -22 13z"/>
<path d="M2155 3110 c-324 -30 -610 -169 -831 -403 -221 -233 -338 -516 -351
-842 -14 -373 126 -719 396 -978 192 -183 402 -291 667 -343 130 -26 348 -24
481 5 521 110 908 498 1020 1021 25 119 25 381 0 500 -84 394 -327 717 -676
898 -214 111 -474 164 -706 142z m318 -65 c511 -89 913 -482 1014 -992 23
-119 23 -347 0 -466 -49 -245 -167 -467 -342 -642 -105 -106 -193 -170 -320
-235 -179 -91 -342 -129 -556 -130 -215 0 -371 35 -556 126 -345 170 -585 484
-669 876 -25 113 -25 350 -1 471 49 245 167 468 342 642 182 183 413 304 664
349 103 19 319 19 424 1z"/>
<path d="M2098 2815 c-92 -15 -191 -47 -273 -87 -65 -32 -185 -109 -185 -119
0 -4 17 -9 38 -13 423 -73 736 -81 1063 -25 178 30 174 27 93 81 -227 150
-480 206 -736 163z"/>
<path d="M1530 2541 c0 -9 11 -73 25 -142 48 -246 59 -359 59 -629 1 -273 -9
-372 -58 -575 -14 -55 -24 -101 -22 -102 1 -1 19 2 41 7 22 5 108 20 190 32
133 20 187 23 475 22 329 0 403 -6 649 -49 47 -8 87 -13 89 -10 3 2 -7 64 -21
137 -47 236 -52 299 -52 598 1 298 10 406 56 618 11 52 19 96 16 98 -2 2 -44
-5 -93 -15 -201 -44 -319 -55 -584 -55 -263 1 -442 17 -677 63 -84 16 -93 16
-93 2z m265 -46 c94 -14 234 -28 313 -32 l142 -6 0 -164 c0 -99 4 -163 10
-163 6 0 11 65 12 163 l3 162 165 7 c164 6 326 26 449 54 35 8 65 13 67 11 2
-1 -8 -61 -21 -132 -26 -145 -41 -273 -51 -447 l-7 -118 -158 0 -158 0 -11 55
c-21 103 -111 198 -213 226 -148 40 -322 -55 -363 -199 -52 -177 60 -360 235
-388 l41 -7 0 -167 0 -167 -149 -7 c-163 -7 -353 -27 -471 -50 -41 -8 -76 -13
-77 -12 -1 0 9 45 22 98 28 117 51 297 60 471 l7 127 154 0 c208 0 205 19 -3
22 l-158 3 -7 121 c-7 134 -29 309 -59 459 -25 131 -26 125 19 114 20 -5 114
-20 207 -34z m430 -416 c4 -5 -2 -6 -12 -2 -10 3 -15 2 -10 -2 4 -5 -7 -15
-25 -22 -25 -11 -33 -11 -39 -1 -4 7 -5 16 -2 22 4 5 10 1 14 -10 7 -18 8 -18
8 1 1 17 3 17 11 5 9 -13 10 -13 10 0 0 17 36 24 45 9z m-95 -41 c0 -5 -7 -8
-14 -5 -10 4 -13 1 -10 -8 7 -16 -32 -40 -41 -25 -3 5 3 10 15 10 12 0 18 4
15 10 -8 13 14 42 26 34 5 -3 9 -10 9 -16z m227 -20 c23 -10 47 -26 55 -36 12
-14 10 -14 -12 1 -13 9 -34 17 -47 17 -12 0 -34 5 -48 12 -14 6 -28 8 -32 5
-11 -12 28 -34 61 -35 17 0 32 -6 34 -11 2 -6 8 -9 13 -5 5 3 9 -2 9 -11 0 -9
4 -14 9 -10 11 6 61 -62 62 -85 0 -10 3 -9 8 5 6 15 9 11 14 -21 18 -112 -68
-220 -191 -240 -32 -5 -44 -2 -60 14 -12 12 -22 16 -24 11 -5 -16 -65 19 -96
57 -34 41 -54 99 -46 134 5 20 4 22 -6 10 -9 -12 -10 -9 -6 15 11 51 12 53 31
75 10 11 15 20 11 20 -4 0 3 15 15 33 l22 32 -34 -30 c-34 -30 -34 -30 -9 -2
39 45 87 70 118 63 21 -5 23 -4 12 4 -26 18 91 0 137 -22z m-299 -110 c-6 -18
-13 -27 -15 -21 -4 11 13 53 22 53 2 0 -1 -15 -7 -32z m412 -12 c0 -12 -5 -7
-19 24 -11 24 -11 24 3 6 9 -11 16 -24 16 -30z m-416 -161 c3 -11 0 -6 -8 10
-8 17 -15 53 -14 80 l1 50 7 -60 c4 -33 10 -69 14 -80z m-62 73 c-6 -6 -15 -8
-19 -4 -4 4 -1 11 7 16 19 12 27 3 12 -12z m538 -32 c-12 -13 -30 3 -30 26 0
21 0 21 19 2 10 -10 15 -23 11 -28z m354 -83 c9 -158 32 -345 58 -471 11 -57
18 -105 16 -107 -2 -3 -42 2 -87 10 -118 21 -325 43 -473 51 l-128 7 0 167 0
168 38 7 c121 21 217 122 246 258 l6 27 159 0 159 0 6 -117z m-379 19 c-3 -3
-11 0 -18 7 -9 10 -8 11 6 5 10 -3 15 -9 12 -12z m-405 -47 c24 -29 24 -29 2
-10 -13 11 -28 29 -34 40 -11 21 -8 18 32 -30z m382 3 c-6 -6 -16 -7 -22 -3
-9 6 -9 9 1 16 17 10 34 0 21 -13z m-33 -29 c-8 -5 -10 -9 -6 -9 5 0 5 -5 1
-11 -4 -7 -9 -8 -17 0 -12 12 10 44 25 35 6 -4 5 -10 -3 -15z"/>
<path d="M2630 2373 l0 -78 40 -17 40 -17 0 73 c0 63 -3 75 -23 94 -45 43 -57
31 -57 -55z"/>
<path d="M2742 2427 c-18 -20 -22 -35 -22 -96 0 -40 3 -71 8 -69 4 3 22 11 40
18 l32 14 0 78 c0 69 -2 78 -18 78 -10 0 -28 -10 -40 -23z"/>
<path d="M1695 2403 l-110 -36 37 -15 c39 -15 42 -26 21 -82 -3 -8 -6 -43 -7
-77 -1 -59 0 -63 22 -63 21 0 22 2 17 84 -6 116 0 123 87 94 l67 -22 108 33
c59 18 115 37 122 41 16 9 -196 81 -233 79 -12 0 -70 -17 -131 -36z"/>
<path d="M2590 2351 l0 -91 34 0 c19 0 43 -3 53 -6 15 -5 15 -4 3 5 -8 6 -25
11 -37 11 -21 0 -22 5 -25 82 -2 54 -7 83 -15 86 -10 3 -13 -19 -13 -87z"/>
<path d="M2823 2433 c-9 -3 -13 -30 -13 -83 0 -74 -1 -79 -22 -83 -13 -2 -4
-5 20 -6 l42 -1 0 90 c0 50 -3 90 -7 89 -5 0 -14 -3 -20 -6z"/>
<path d="M2550 2321 l0 -98 28 5 c19 4 22 7 10 10 -16 3 -18 16 -18 93 0 53
-4 89 -10 89 -6 0 -10 -40 -10 -99z"/>
<path d="M2866 2413 c-3 -3 -6 -44 -6 -90 0 -71 -2 -83 -17 -83 -22 0 -14 -6
20 -14 l27 -6 0 94 c0 87 -7 116 -24 99z"/>
<path d="M1700 2251 c0 -36 3 -40 40 -55 22 -9 63 -16 90 -16 27 0 68 7 90 16
37 15 40 19 40 55 0 45 -3 45 -77 22 -50 -16 -56 -16 -106 0 -74 23 -77 23
-77 -22z"/>
<path d="M2578 2209 c-21 -12 -24 -69 -6 -87 7 -7 31 -12 53 -12 43 0 65 15
79 54 8 22 21 13 40 -26 9 -18 21 -24 55 -26 69 -5 100 36 65 86 -20 29 -85
31 -113 3 -23 -23 -42 -22 -69 2 -21 19 -77 22 -104 6z m104 -25 c17 -36 0
-58 -46 -62 -43 -4 -66 11 -66 42 0 32 19 46 62 46 32 0 41 -5 50 -26z m179 5
c19 -37 -3 -69 -48 -69 -60 0 -84 30 -57 69 21 30 89 30 105 0z"/>
<path d="M1782 1527 c-48 -48 -64 -77 -44 -77 4 0 32 25 62 55 36 37 51 58 44
65 -7 7 -27 -8 -62 -43z"/>
<path d="M1805 1490 c-37 -38 -38 -41 -22 -57 16 -16 13 -21 -50 -85 -53 -53
-65 -70 -55 -80 10 -10 27 2 80 55 68 68 68 68 87 47 l19 -21 38 38 c41 40 45
52 26 71 -7 7 -13 20 -13 30 0 9 -8 17 -17 17 -10 0 -23 6 -30 13 -17 17 -20
16 -63 -28z"/>
<path d="M1917 1382 c-43 -44 -59 -72 -39 -72 10 0 112 103 112 113 0 19 -30
2 -73 -41z"/>
<path d="M1773 1241 c-13 -11 -23 -22 -23 -25 0 -3 54 -6 120 -6 66 0 120 3
120 6 0 4 -10 15 -22 25 -30 27 -163 27 -195 0z"/>
<path d="M2178 1983 c7 -3 16 -2 19 1 4 3 -2 6 -13 5 -11 0 -14 -3 -6 -6z"/>
<path d="M2220 1971 c0 -7 -10 -11 -23 -9 -13 1 -32 -5 -41 -15 -14 -14 -15
-17 -3 -17 9 0 17 -5 19 -12 3 -9 6 -9 12 0 4 7 2 12 -4 12 -6 0 -8 5 -5 10 3
6 15 10 25 10 20 0 36 17 26 27 -3 4 -6 1 -6 -6z"/>
<path d="M2270 1971 c0 -5 -5 -22 -12 -38 -6 -15 -12 -32 -12 -36 -1 -5 -10
-15 -21 -23 -11 -8 -26 -29 -33 -47 l-12 -32 4 30 c2 17 6 37 10 45 5 11 0 16
-14 17 -36 3 -51 -72 -25 -131 13 -29 -27 -16 -42 14 -8 15 -13 19 -13 9 0 -8
14 -28 30 -44 20 -19 30 -24 30 -14 1 12 2 12 9 -1 7 -11 26 -15 68 -15 l58 0
0 36 c1 44 19 69 51 69 30 0 36 12 23 47 -21 52 -28 84 -18 78 5 -4 9 1 9 9 0
12 -10 16 -36 16 -21 0 -33 4 -29 10 3 6 -1 10 -9 10 -9 0 -16 -4 -16 -9z
m-20 -146 c0 -25 -14 -34 -24 -16 -8 12 3 41 15 41 5 0 9 -11 9 -25z m37 -20
c0 -8 -4 -12 -9 -9 -5 3 -6 10 -3 15 9 13 12 11 12 -6z"/>
<path d="M2374 1928 c-3 -4 4 -8 15 -8 12 0 21 4 21 8 0 5 -7 9 -15 9 -9 0
-18 -4 -21 -9z"/>
<path d="M2373 1895 c-3 -9 -3 -18 -1 -21 3 -3 8 4 11 16 6 23 -1 27 -10 5z"/>
<path d="M2086 1881 c-4 -7 -5 -15 -2 -18 9 -9 19 4 14 18 -4 11 -6 11 -12 0z"/>
<path d="M2391 1863 c-1 -27 15 -39 23 -17 3 8 2 12 -3 9 -5 -3 -12 3 -14 12
-4 14 -5 13 -6 -4z"/>
<path d="M2083 1831 c4 -29 17 -39 17 -13 0 11 -5 24 -10 27 -6 4 -9 -2 -7
-14z"/>
<path d="M2081 1774 c0 -11 3 -14 6 -6 3 7 2 16 -1 19 -3 4 -6 -2 -5 -13z"/>
<path d="M2090 1744 c0 -6 15 -23 32 -40 l33 -29 -25 30 c-14 17 -28 34 -32
40 -5 5 -8 5 -8 -1z"/>
<path d="M2173 1671 c1 -11 7 -23 14 -26 11 -4 11 0 2 18 -16 31 -18 32 -16 8z"/>
<path d="M2332 1655 c0 -16 2 -22 5 -12 2 9 2 23 0 30 -3 6 -5 -1 -5 -18z"/>
<path d="M2650 1529 c0 -41 -1 -41 -30 -35 -16 3 -30 1 -30 -4 0 -5 14 -10 32
-12 l32 -3 -3 -107 c-2 -70 2 -114 10 -130 l12 -23 11 32 c7 20 9 69 5 125 -3
51 -3 96 -1 101 2 4 16 7 33 7 16 0 29 4 29 10 0 5 -13 7 -31 3 -29 -6 -31 -4
-29 23 3 48 1 54 -20 54 -17 0 -20 -7 -20 -41z"/>
<path d="M2570 1462 c-8 -4 -16 -18 -17 -32 -1 -14 1 -19 4 -11 4 10 9 8 20
-10 10 -17 12 -18 8 -4 -15 43 -11 50 30 56 l40 6 -35 1 c-19 0 -42 -2 -50 -6z"/>
<path d="M2720 1463 c20 -3 42 -13 53 -26 12 -16 16 -17 11 -4 -4 10 -1 17 7
18 33 1 -30 18 -66 17 -40 -1 -40 -1 -5 -5z"/>
<path d="M2790 1405 c0 -5 5 -17 10 -25 5 -8 10 -10 10 -5 0 6 -5 17 -10 25
-5 8 -10 11 -10 5z"/>
<path d="M2522 1355 c-15 -32 -15 -31 4 -49 38 -39 112 -2 84 42 -11 16 -11
16 -6 0 5 -15 -1 -18 -40 -18 -42 0 -44 1 -34 21 7 11 10 23 7 25 -2 2 -9 -7
-15 -21z"/>
<path d="M2726 1344 c-8 -21 -8 -20 10 -38 20 -20 68 -21 84 -1 10 12 10 20 1
38 -6 12 -9 14 -7 5 5 -15 -2 -18 -39 -18 -35 0 -43 3 -39 15 4 8 4 15 1 15
-3 0 -8 -7 -11 -16z"/>
<path d="M3011 2348 c-11 -62 -26 -153 -33 -203 -16 -117 -16 -522 0 -645 18
-137 54 -320 63 -320 15 0 90 115 129 195 22 44 51 121 66 170 26 83 28 103
28 270 1 197 -10 255 -75 408 -31 73 -134 237 -149 237 -4 0 -17 -51 -29 -112z"/>
<path d="M1411 2354 c-63 -99 -112 -224 -136 -343 -26 -127 -17 -345 19 -466
33 -110 90 -230 147 -310 l43 -59 13 42 c51 176 75 521 54 762 -17 184 -64
460 -79 460 -4 0 -32 -39 -61 -86z"/>
<path d="M2010 1090 c-126 -10 -332 -38 -362 -49 -20 -7 -16 -12 40 -49 192
-131 397 -190 622 -179 141 7 255 34 369 88 89 41 211 116 211 128 0 8 -164
35 -305 51 -129 14 -452 20 -575 10z"/>
<path d="M1427 3094 c-7 -7 42 -84 54 -84 13 0 11 7 -13 50 -23 40 -29 45 -41
34z"/>
<path d="M3105 3082 c-14 -10 -18 -79 -5 -87 5 -3 10 -3 10 2 1 4 5 27 9 51 8
42 5 49 -14 34z"/>
<path d="M1337 3034 c-9 -9 54 -85 65 -78 4 3 -4 23 -19 44 -28 40 -35 45 -46
34z"/>
<path d="M3220 3017 c0 -8 -7 -20 -16 -27 -22 -19 -36 -48 -25 -54 4 -3 22 12
39 33 27 34 29 41 17 51 -12 10 -15 10 -15 -3z"/>
<path d="M1276 2979 l-26 -20 30 -32 c16 -18 30 -36 30 -41 0 -5 11 1 25 14
28 26 33 60 10 60 -8 0 -15 6 -15 14 0 23 -27 26 -54 5z m47 -28 c20 -20 25
-31 17 -36 -7 -5 -22 4 -36 20 -43 50 -27 62 19 16z"/>
<path d="M1429 2983 c-13 -16 -12 -17 4 -4 9 7 17 15 17 17 0 8 -8 3 -21 -13z"/>
<path d="M3294 2942 c-12 -9 -34 -79 -26 -86 12 -12 18 -4 31 39 14 47 13 59
-5 47z"/>
<path d="M1243 2904 c49 -54 28 -88 -24 -38 -38 37 -59 21 -23 -17 30 -31 53
-36 72 -17 20 20 14 43 -20 74 l-33 29 28 -31z"/>
<path d="M3250 2920 c-9 -6 -10 -10 -3 -10 6 0 15 5 18 10 8 12 4 12 -15 0z"/>
<path d="M3332 2857 c-31 -32 -32 -34 -14 -50 35 -32 92 -16 92 25 0 24 -7 23
-34 -9 -16 -18 -28 -24 -41 -19 -17 6 -16 9 11 37 16 16 34 27 43 24 11 -4 12
-3 1 10 -17 21 -22 20 -58 -18z"/>
<path d="M1129 2831 l-24 -20 34 -35 c25 -25 38 -33 45 -25 8 7 6 13 -7 20
-14 8 -15 14 -6 31 8 16 8 24 -3 35 -13 12 -18 11 -39 -6z m30 -27 c3 -16 1
-17 -13 -5 -19 16 -21 34 -3 29 6 -3 14 -13 16 -24z"/>
<path d="M3407 2787 c-19 -13 -28 -73 -16 -103 7 -18 8 -18 8 -1 1 14 6 17 21
12 28 -9 70 20 70 47 0 20 -1 20 -25 -6 -28 -31 -65 -35 -65 -8 0 28 35 56 62
49 22 -6 22 -5 4 8 -24 18 -37 19 -59 2z"/>
<path d="M1053 2725 c2 -5 25 -10 50 -10 27 0 46 4 44 10 -2 6 -25 10 -50 10
-27 0 -46 -4 -44 -10z"/>
<path d="M3482 2681 c-28 -18 -40 -31 -32 -36 13 -8 92 44 84 56 -7 12 -3 13
-52 -20z"/>
<path d="M998 2658 c-3 -7 12 -25 33 -40 30 -22 40 -24 48 -14 9 10 6 15 -10
19 -14 4 -20 11 -16 21 4 9 2 16 -3 16 -6 0 -10 -5 -10 -12 0 -6 -8 -4 -19 6
-14 13 -20 14 -23 4z"/>
<path d="M1093 2645 c0 -8 4 -12 9 -9 4 3 8 9 8 15 0 5 -4 9 -8 9 -5 0 -9 -7
-9 -15z"/>
<path d="M3512 2641 c-18 -11 -33 -81 -22 -100 8 -14 9 -14 10 0 0 12 8 14 30
11 38 -5 60 12 59 47 0 25 -1 25 -9 4 -10 -26 -46 -47 -66 -39 -34 13 3 66 47
66 19 0 21 2 9 10 -18 12 -41 12 -58 1z"/>
<path d="M955 2590 c-3 -5 3 -10 14 -10 12 0 21 -7 21 -15 0 -10 10 -15 30
-15 17 0 30 5 30 10 0 6 -11 10 -25 10 -16 0 -25 6 -25 15 0 17 -35 21 -45 5z"/>
<path d="M934 2559 c-3 -6 -4 -11 -3 -13 2 -1 21 -12 43 -25 41 -23 57 -22 36
4 -19 23 -69 45 -76 34z"/>
<path d="M3562 2528 c-7 -7 -12 -23 -11 -37 0 -15 3 -20 6 -11 8 23 34 40 61
40 13 0 20 4 17 10 -9 14 -58 13 -73 -2z"/>
<path d="M3640 2499 c0 -18 -32 -38 -60 -39 l-25 -1 23 -11 c33 -16 72 4 72
37 0 14 -2 25 -5 25 -3 0 -5 -5 -5 -11z"/>
<path d="M890 2470 c0 -5 5 -10 11 -10 5 0 7 5 4 10 -3 6 -8 10 -11 10 -2 0
-4 -4 -4 -10z"/>
<path d="M913 2437 c-46 -17 -59 -33 -34 -40 12 -3 19 -2 16 3 -3 4 16 13 42
19 35 9 43 15 33 22 -18 10 -17 11 -57 -4z"/>
<path d="M3665 2440 c3 -5 8 -10 11 -10 2 0 4 5 4 10 0 6 -5 10 -11 10 -5 0
-7 -4 -4 -10z"/>
<path d="M3643 2402 c-24 -9 -43 -22 -43 -30 0 -10 6 -12 18 -7 9 4 31 13 49
19 18 7 29 16 25 23 -5 7 -20 5 -49 -5z"/>
<path d="M845 2350 c-4 -6 5 -10 21 -10 15 0 36 -7 46 -17 15 -13 18 -14 18
-2 0 8 -5 20 -12 27 -15 15 -64 16 -73 2z"/>
<path d="M830 2308 c0 -36 46 -59 78 -39 10 6 3 10 -22 15 -19 4 -40 14 -45
24 -10 16 -10 16 -11 0z"/>
<path d="M3683 2291 c-62 -22 -57 -45 5 -24 57 19 52 16 44 29 -5 6 -22 4 -49
-5z"/>
<path d="M810 2249 c0 -5 5 -7 10 -4 6 3 10 8 10 11 0 2 -4 4 -10 4 -5 0 -10
-5 -10 -11z"/>
<path d="M3730 2240 c-8 -5 -11 -10 -7 -10 4 0 -4 -16 -19 -35 -15 -20 -24
-39 -20 -43 10 -9 65 59 66 81 0 20 0 20 -20 7z"/>
<path d="M800 2217 c0 -9 14 -17 38 -20 55 -9 56 -9 60 1 1 5 -13 13 -33 16
-20 4 -43 10 -51 13 -8 3 -14 -1 -14 -10z"/>
<path d="M816 2121 c-10 -11 -23 -18 -27 -15 -5 3 -9 0 -9 -5 0 -19 33 -12 57
11 21 19 26 20 34 8 9 -13 10 -13 6 0 -6 23 -41 23 -61 1z"/>
<path d="M3742 2131 c-6 -3 -16 -19 -21 -34 -7 -17 -15 -25 -23 -21 -7 4 -8 3
-4 -4 13 -22 38 -12 49 18 6 16 18 31 27 32 13 3 13 4 -1 10 -9 3 -21 3 -27
-1z"/>
<path d="M3685 2119 c-4 -6 -5 -12 -2 -15 2 -3 7 2 10 11 7 17 1 20 -8 4z"/>
<path d="M772 2049 c6 -19 88 -30 88 -12 0 7 -10 13 -22 13 -13 0 -34 3 -47 7
-18 4 -22 2 -19 -8z"/>
<path d="M3718 2013 c-37 -10 -16 -24 32 -21 32 2 50 8 50 16 0 12 -45 15 -82
5z"/>
<path d="M760 1992 c0 -5 7 -15 15 -22 21 -17 19 -30 -5 -30 -11 0 -20 -6 -20
-14 0 -10 15 -15 50 -18 35 -2 50 1 50 10 0 6 -9 12 -20 12 -28 0 -25 14 5 28
14 6 25 19 25 27 0 14 -5 12 -31 -6 l-32 -22 -18 22 c-11 13 -19 19 -19 13z"/>
<path d="M3738 1933 c-45 -7 -32 -23 17 -23 33 0 45 4 45 15 0 15 -9 16 -62 8z"/>
<path d="M3797 1870 c5 -18 0 -20 -41 -20 -25 0 -46 -4 -46 -10 0 -5 20 -10
44 -10 34 0 46 -4 49 -17 3 -10 5 1 6 24 0 23 -3 44 -8 47 -5 4 -7 -3 -4 -14z"/>
<path d="M750 1869 c0 -5 5 -7 10 -4 6 3 10 8 10 11 0 2 -4 4 -10 4 -5 0 -10
-5 -10 -11z"/>
<path d="M836 1865 c4 -8 8 -15 10 -15 2 0 4 7 4 15 0 8 -4 15 -10 15 -5 0 -7
-7 -4 -15z"/>
<path d="M790 1840 c0 -5 -9 -10 -20 -10 -43 0 -17 -18 30 -22 41 -2 50 0 50
13 0 12 -7 15 -26 11 -19 -3 -25 -1 -20 7 4 6 2 11 -3 11 -6 0 -11 -4 -11 -10z"/>
<path d="M806 1773 c-4 -4 -17 -8 -29 -8 -18 0 -23 -7 -25 -33 l-3 -33 50 3
c35 2 51 7 51 17 0 11 -10 12 -45 8 -37 -5 -45 -4 -45 9 0 9 7 14 18 12 9 -1
23 1 30 6 7 4 20 2 29 -6 15 -11 16 -11 10 5 -4 10 -7 21 -7 23 0 7 -26 4 -34
-3z"/>
<path d="M3709 1748 c-11 -21 -11 -22 4 -9 10 8 32 12 57 9 28 -2 40 0 40 9 0
9 -15 13 -45 13 -36 0 -47 -4 -56 -22z"/>
<path d="M776 1654 c-4 -10 -1 -14 6 -12 15 5 23 28 10 28 -5 0 -13 -7 -16
-16z"/>
<path d="M3790 1645 c0 -14 -31 -14 -77 1 -7 2 -13 -3 -13 -10 0 -20 80 -33
91 -15 10 15 12 39 4 39 -3 0 -5 -7 -5 -15z"/>
<path d="M792 1614 c-12 -8 -22 -20 -22 -26 0 -7 5 -6 15 2 8 7 31 10 51 8
l37 -4 -23 18 c-27 22 -30 22 -58 2z"/>
<path d="M855 1560 c-4 -7 -24 -10 -46 -8 -38 3 -39 3 -20 -16 22 -22 65 -16
75 10 8 20 1 30 -9 14z"/>
<path d="M3680 1551 c0 -4 23 -13 50 -18 38 -8 50 -7 50 2 0 7 -14 15 -31 19
-44 8 -69 8 -69 -3z"/>
<path d="M854 1467 c-4 -12 -13 -17 -26 -13 -16 4 -19 1 -15 -15 3 -11 -1 -23
-10 -27 -12 -7 -12 -10 1 -21 8 -7 12 -19 9 -27 -3 -9 2 -14 15 -14 12 0 24
-5 28 -11 4 -8 9 -8 17 0 6 6 19 11 29 11 11 0 18 7 18 18 0 10 5 23 11 29 8
8 8 13 0 17 -6 4 -11 16 -11 26 0 13 -5 18 -15 13 -9 -3 -22 2 -30 13 -13 18
-14 18 -21 1z"/>
<path d="M3685 1459 c-4 -6 -13 -8 -21 -5 -9 3 -14 -1 -14 -12 0 -10 -6 -24
-12 -31 -10 -11 -10 -14 0 -18 6 -3 12 -13 12 -24 0 -12 7 -19 19 -19 11 0 21
-5 23 -10 5 -16 58 13 58 32 0 9 6 18 13 21 10 4 10 7 0 18 -7 7 -13 21 -13
31 0 11 -5 15 -14 12 -8 -3 -17 -1 -21 5 -3 6 -10 11 -15 11 -5 0 -12 -5 -15
-11z"/>
<path d="M3622 1251 c-7 -4 0 -11 18 -18 23 -8 27 -8 23 2 -6 17 -27 25 -41
16z"/>
<path d="M920 1220 c-26 -16 -3 -22 27 -6 23 13 24 15 8 15 -11 1 -27 -3 -35
-9z"/>
<path d="M3600 1209 c0 -11 25 -22 39 -17 6 1 -1 8 -14 15 -14 6 -25 7 -25 2z"/>
<path d="M953 1178 c-20 -10 -32 -28 -18 -28 12 0 55 24 55 32 0 10 -9 9 -37
-4z"/>
<path d="M3583 1134 c35 -19 30 -28 -7 -14 -21 8 -27 7 -24 -2 3 -7 9 -13 14
-13 5 0 15 -4 23 -9 12 -8 30 7 31 26 0 9 -35 28 -52 28 -7 -1 0 -8 15 -16z"/>
<path d="M993 1098 c-13 -6 -23 -15 -23 -20 0 -14 16 -9 41 12 26 21 17 25
-18 8z"/>
<path d="M3530 1090 c0 -5 5 -10 10 -10 6 0 10 -6 10 -13 0 -7 9 -13 20 -13
29 0 25 13 -10 31 -17 9 -30 11 -30 5z"/>
<path d="M1014 1046 c-30 -23 -12 -27 21 -6 18 12 24 20 14 20 -8 0 -24 -6
-35 -14z"/>
<path d="M3503 1026 c3 -9 -3 -17 -16 -21 -22 -7 -22 -8 3 -12 13 -3 26 0 28
6 3 9 8 9 17 1 7 -6 16 -7 18 -3 3 5 -8 16 -25 26 -23 13 -29 14 -25 3z"/>
<path d="M1046 1001 c-15 -10 -24 -21 -19 -24 10 -6 60 29 52 37 -2 3 -17 -3
-33 -13z"/>
<path d="M1080 960 c-14 -10 -22 -21 -19 -25 3 -3 17 3 30 14 31 25 21 35 -11
11z"/>
<path d="M3470 950 c33 -26 52 -25 21 0 -13 11 -28 20 -35 20 -6 0 0 -9 14
-20z"/>
<path d="M1118 920 c-10 -23 -6 -52 5 -41 5 5 7 19 5 32 -3 17 -6 20 -10 9z"/>
<path d="M3420 908 c0 -4 15 -7 34 -5 19 1 32 5 29 10 -6 9 -63 5 -63 -5z"/>
<path d="M1158 884 c-5 -4 -8 -23 -7 -43 0 -34 1 -34 10 -11 11 27 8 66 -3 54z"/>
<path d="M3390 883 c0 -12 38 -48 45 -41 3 2 -6 15 -20 28 -14 13 -25 19 -25
13z"/>
<path d="M3373 818 c22 -23 34 -20 23 7 -3 8 -14 15 -25 15 -20 0 -20 -1 2
-22z"/>
<path d="M1192 810 c-12 -10 -18 -21 -14 -24 5 -3 20 6 32 19 28 29 15 33 -18
5z"/>
<path d="M3330 805 c0 -16 26 -38 39 -33 6 1 -1 13 -14 25 -16 14 -25 17 -25
8z"/>
<path d="M1250 755 c-13 -14 -19 -25 -13 -25 12 0 48 38 41 45 -2 3 -15 -6
-28 -20z"/>
<path d="M3280 750 c0 -5 17 -10 38 -9 33 1 34 2 12 9 -36 11 -50 11 -50 0z"/>
<path d="M1286 724 c-26 -26 -18 -39 9 -14 14 13 25 25 25 27 0 9 -20 1 -34
-13z"/>
<path d="M1331 708 c-1 -9 -9 -22 -18 -27 -17 -10 -17 -10 0 -11 19 0 32 22
24 42 -4 8 -6 7 -6 -4z"/>
<path d="M3234 704 c4 -12 1 -14 -14 -9 -11 4 -20 2 -20 -4 0 -6 7 -11 15 -11
8 0 15 -7 15 -15 0 -8 4 -15 9 -15 5 0 7 10 4 23 -5 18 -3 20 8 10 23 -22 31
-14 12 12 -20 27 -38 33 -29 9z"/>
<path d="M1385 677 c5 -17 2 -33 -6 -44 -12 -14 -12 -16 1 -11 19 6 26 56 10
72 -9 8 -10 4 -5 -17z"/>
<path d="M1343 665 c-9 -24 1 -27 15 -5 8 13 8 20 2 20 -6 0 -13 -7 -17 -15z"/>
<path d="M3179 657 c6 -8 7 -18 3 -22 -4 -5 -2 -5 5 -2 6 4 13 1 16 -5 2 -7 8
-10 12 -6 5 5 0 17 -10 28 -20 22 -44 28 -26 7z"/>
<path d="M1407 615 c-9 -13 -13 -26 -9 -29 5 -3 16 8 26 25 21 35 8 38 -17 4z"/>
<path d="M1485 609 c2 -14 -2 -35 -12 -48 -15 -22 -15 -23 6 -12 22 12 26 33
10 66 -8 17 -9 16 -4 -6z"/>
<path d="M3107 603 c3 -7 16 -12 29 -11 33 3 30 15 -5 20 -21 3 -28 1 -24 -9z"/>
<path d="M1435 589 c-10 -29 -3 -31 18 -3 15 20 15 24 3 24 -8 0 -18 -9 -21
-21z"/>
<path d="M3086 571 c10 -17 21 -28 26 -25 9 6 -20 54 -34 54 -5 0 -1 -13 8
-29z"/>
<path d="M1504 555 c-11 -27 1 -33 19 -9 16 21 16 24 2 24 -9 0 -18 -7 -21
-15z"/>
<path d="M3021 565 c-1 -5 8 -21 19 -35 11 -14 20 -20 20 -14 0 7 -9 22 -20
35 -10 13 -19 20 -19 14z"/>
<path d="M1537 530 c-10 -16 -13 -30 -8 -30 6 0 17 14 26 30 9 17 12 30 7 30
-4 0 -16 -13 -25 -30z"/>
<path d="M3070 551 c0 -5 5 -13 10 -16 6 -3 10 -2 10 4 0 5 -4 13 -10 16 -5 3
-10 2 -10 -4z"/>
<path d="M1580 510 c0 -16 5 -30 10 -30 6 0 10 14 10 30 0 17 -4 30 -10 30 -5
0 -10 -13 -10 -30z"/>
<path d="M2961 525 c0 -19 26 -58 33 -47 3 5 -3 21 -14 33 -11 13 -19 20 -19
14z"/>
<path d="M2930 512 c0 -7 9 -22 20 -34 11 -12 20 -17 20 -11 0 16 -39 60 -40
45z"/>
<path d="M1645 471 c-8 -17 -12 -31 -7 -31 10 0 35 50 28 57 -2 3 -12 -9 -21
-26z"/>
<path d="M2908 470 c9 -16 18 -25 20 -20 4 12 -17 50 -28 50 -5 0 -1 -13 8
-30z"/>
<path d="M1720 446 c0 -20 4 -35 9 -31 5 3 7 18 5 32 -8 41 -14 41 -14 -1z"/>
<path d="M2845 455 c4 -16 11 -34 16 -39 15 -16 10 16 -7 44 l-15 25 6 -30z"/>
<path d="M2804 445 c6 -17 -9 -21 -19 -5 -3 6 -11 10 -16 10 -6 0 -8 -4 -4 -9
7 -13 65 -41 65 -33 -1 21 -14 52 -22 52 -6 0 -8 -7 -4 -15z"/>
<path d="M1790 410 c0 -16 4 -30 9 -30 5 0 9 14 9 30 -1 17 -5 30 -10 30 -4 0
-8 -13 -8 -30z"/>
<path d="M1842 401 c-6 -17 -7 -33 -2 -36 9 -5 25 53 17 61 -3 3 -9 -9 -15
-25z"/>
<path d="M2710 395 c13 -14 26 -23 28 -20 7 7 -29 45 -41 45 -6 0 0 -11 13
-25z"/>
<path d="M1880 400 c0 -5 5 -10 10 -10 6 0 10 5 10 10 0 6 -4 10 -10 10 -5 0
-10 -4 -10 -10z"/>
<path d="M1922 400 c3 -8 1 -23 -4 -34 -8 -14 -7 -17 4 -14 18 6 23 37 8 52
-10 8 -11 7 -8 -4z"/>
<path d="M2641 395 c4 -19 49 -42 49 -25 0 6 -4 10 -9 10 -5 0 -17 8 -26 17
-16 16 -17 15 -14 -2z"/>
<path d="M1962 388 c-15 -15 -15 -45 0 -54 6 -4 8 -3 4 4 -3 6 -2 22 4 36 11
29 9 31 -8 14z"/>
<path d="M2606 373 c7 -31 12 -38 18 -32 7 7 -6 59 -15 59 -5 0 -6 -12 -3 -27z"/>
<path d="M1998 361 c-3 -17 -1 -31 3 -31 13 0 22 41 11 52 -6 6 -11 -1 -14
-21z"/>
<path d="M2540 374 c0 -14 -3 -14 -15 -4 -30 24 -25 3 5 -23 l30 -27 0 29 c0
17 -4 33 -10 36 -5 3 -10 -1 -10 -11z"/>
<path d="M2062 343 c-2 -28 0 -34 8 -23 12 18 13 60 2 60 -4 0 -9 -17 -10 -37z"/>
<path d="M2101 352 c-5 -10 -6 -24 -2 -31 6 -9 10 -3 13 18 5 36 3 38 -11 13z"/>
<path d="M2145 339 c0 -16 3 -29 8 -29 4 0 7 11 7 24 0 14 -3 27 -7 29 -5 3
-8 -8 -8 -24z"/>
<path d="M2390 335 c0 -19 5 -35 10 -35 6 0 10 16 10 35 0 19 -4 35 -10 35 -5
0 -10 -16 -10 -35z"/>
<path d="M2430 355 c6 -8 9 -19 6 -24 -4 -5 -2 -12 4 -16 5 -3 10 1 10 9 0 22
17 20 23 -1 3 -10 5 -3 6 15 0 17 -3 32 -9 32 -5 0 -10 -5 -10 -12 0 -9 -3 -9
-12 0 -17 17 -33 15 -18 -3z"/>
<path d="M2181 355 c-1 -14 37 -61 43 -54 3 2 -6 18 -19 34 -13 17 -24 26 -24
20z"/>
<path d="M2258 330 c-3 -16 -1 -30 4 -30 4 0 8 14 8 30 0 17 -2 30 -4 30 -2 0
-6 -13 -8 -30z"/>
<path d="M2298 330 c2 -16 7 -30 11 -30 4 0 6 14 3 30 -2 17 -7 30 -11 30 -4
0 -6 -13 -3 -30z"/>
<path d="M2330 349 c0 -17 26 -57 33 -49 2 3 -4 19 -14 35 -11 17 -19 23 -19
14z"/>
</g>
</svg>
